<?xml version="1.0" standalone="no"?>
<!DOCTYPE svg PUBLIC "-//W3C//DTD SVG 20010904//EN"
 "http://www.w3.org/TR/2001/REC-SVG-20010904/DTD/svg10.dtd">
<svg version="1.0" xmlns="http://www.w3.org/2000/svg"
 width="640.000000pt" height="250.000000pt" viewBox="0 0 640.000000 250.000000"
 preserveAspectRatio="xMidYMid meet">

<g transform="translate(0.000000,250.000000) scale(0.100000,-0.100000)"
fill="#000000" stroke="none">
<path d="M595 2303 c-116 -27 -192 -74 -259 -160 -24 -31 -40 -68 -55 -131
-21 -85 -22 -100 -19 -757 4 -665 4 -670 26 -738 20 -57 34 -78 92 -137 59
-58 80 -72 137 -92 68 -22 69 -22 815 -25 713 -3 752 -3 828 16 164 40 277
152 299 298 15 96 15 1323 0 1413 -24 155 -154 278 -325 309 -57 11 -1495 14
-1539 4z m526 -496 c21 -16 49 -71 49 -94 -1 -32 -22 -58 -182 -222 -129 -133
-156 -165 -150 -182 4 -11 78 -90 163 -177 164 -165 177 -185 153 -240 -21
-51 -77 -67 -132 -38 -38 20 -389 390 -409 431 -15 32 -15 35 10 77 14 23 117
137 229 251 210 215 226 227 269 194z m616 -46 c83 -72 361 -362 385 -402 24
-39 23 -64 -4 -102 -12 -18 -108 -119 -212 -224 -188 -190 -192 -193 -234
-193 -54 0 -82 26 -82 76 0 43 10 55 207 256 74 76 133 144 131 152 -2 8 -52
64 -111 126 -130 134 -146 138 -163 45 -7 -33 -21 -78 -33 -100 -12 -21 -21
-50 -21 -64 0 -13 -11 -43 -24 -65 -13 -23 -26 -61 -30 -86 -4 -24 -15 -58
-26 -75 -10 -16 -22 -48 -25 -70 -4 -22 -21 -68 -37 -103 -47 -99 -90 -116
-153 -61 -39 34 -47 79 -20 109 8 9 19 37 23 62 5 25 18 61 30 79 11 19 24 52
28 74 3 22 17 61 30 86 13 26 28 68 35 95 6 27 20 63 30 79 10 17 23 53 29 80
6 28 19 68 30 90 11 22 22 57 25 78 8 48 67 117 101 117 14 0 50 -23 91 -59z"/>
<path d="M4042 1857 c-13 -6 -34 -32 -48 -58 -20 -41 -22 -52 -12 -81 15 -46
34 -65 82 -81 37 -13 46 -12 86 3 24 9 52 27 62 40 38 47 14 144 -44 176 -28
16 -95 17 -126 1z"/>
<path d="M3201 1836 c-29 -16 -50 -52 -51 -86 0 -14 -9 -44 -20 -65 -11 -22
-27 -62 -34 -90 -8 -27 -23 -72 -34 -100 -11 -27 -28 -72 -37 -100 -10 -27
-33 -93 -52 -145 -19 -52 -42 -115 -50 -140 -8 -25 -25 -70 -38 -100 -13 -30
-26 -71 -30 -90 -4 -19 -16 -46 -27 -60 -11 -15 -16 -33 -12 -43 5 -15 22 -17
120 -17 130 0 128 -1 158 100 9 30 27 68 40 84 l24 29 166 0 c183 -1 210 -8
222 -61 11 -53 24 -87 44 -119 l20 -33 104 0 c72 0 107 4 114 13 11 12 -2 49
-90 272 -11 28 -26 70 -33 95 -7 25 -23 70 -35 100 -12 30 -31 78 -42 105 -11
28 -25 73 -32 102 -7 29 -20 63 -28 75 -9 13 -19 39 -23 58 -4 19 -17 60 -30
90 -13 30 -28 69 -35 86 -6 17 -23 36 -36 43 -35 16 -213 14 -243 -3z m167
-333 c6 -16 13 -46 17 -68 4 -21 15 -55 24 -75 10 -19 26 -59 36 -89 l18 -55
-23 -18 c-18 -15 -40 -18 -120 -18 -136 0 -155 21 -106 119 14 26 32 76 41
111 25 95 40 120 74 120 22 0 31 -6 39 -27z"/>
<path d="M4710 1571 c-95 -14 -171 -52 -235 -116 -52 -54 -64 -72 -88 -146
-36 -110 -36 -183 0 -286 14 -43 38 -93 52 -111 151 -193 502 -188 660 9 40
50 81 178 81 255 0 67 -41 195 -77 238 -93 113 -254 177 -393 157z m158 -227
c15 -12 42 -45 60 -74 44 -74 44 -136 1 -206 -17 -27 -45 -61 -62 -76 -28 -24
-41 -27 -100 -28 -67 0 -68 0 -113 46 -61 61 -87 121 -78 179 9 61 69 150 114
170 48 21 142 15 178 -11z"/>
<path d="M5550 1570 c-133 -21 -225 -91 -255 -194 -15 -54 -15 -62 1 -112 16
-52 77 -124 105 -124 5 0 29 -9 53 -19 23 -11 73 -28 110 -37 38 -9 76 -26 87
-37 24 -26 25 -73 2 -85 -57 -30 -184 -20 -259 20 -47 24 -70 20 -84 -17 -5
-14 -19 -38 -31 -55 -21 -27 -21 -30 -5 -54 21 -33 54 -49 146 -71 100 -25
190 -23 273 4 78 26 119 57 159 120 23 37 28 56 28 108 0 36 -6 76 -14 91 -32
61 -112 114 -216 143 -75 20 -144 51 -155 69 -11 18 4 45 34 63 43 25 124 22
196 -8 33 -14 65 -25 72 -25 18 0 73 85 73 114 0 34 -37 60 -118 84 -84 25
-144 32 -202 22z"/>
<path d="M4009 1522 c-18 -13 -19 -28 -19 -361 0 -309 2 -350 16 -355 31 -12
201 -7 211 7 6 7 10 148 10 354 1 281 -2 345 -13 354 -21 17 -180 18 -205 1z"/>
<path d="M6070 1007 c-42 -15 -80 -68 -80 -113 0 -58 16 -83 67 -105 41 -18
53 -19 87 -9 61 18 86 50 86 109 0 44 -4 55 -35 86 -20 19 -42 35 -50 35 -7 0
-19 2 -27 4 -7 3 -29 0 -48 -7z"/>
</g>
</svg>
